<mxfile host="app.diagrams.net" modified="2023-06-02T13:37:30.136Z" agent="Mozilla/5.0 (Windows NT 10.0; Win64; x64) AppleWebKit/537.36 (KHTML, like Gecko) Chrome/114.0.0.0 Safari/537.36" version="21.3.7" etag="jCDJwxSUFVWMgZ2B5vrt" type="device">
  <diagram id="an_m3yLbhb0AuTbOQ3Mx" name="Page-1">
    <mxGraphModel dx="882" dy="596" grid="1" gridSize="10" guides="1" tooltips="1" connect="1" arrows="1" fold="1" page="1" pageScale="1" pageWidth="850" pageHeight="1100" math="0" shadow="0">
      <root>
        <mxCell id="0" />
        <mxCell id="1" parent="0" />
        <mxCell id="zyU6ERqkYpOqnV2dLeTa-8" style="edgeStyle=orthogonalEdgeStyle;rounded=0;orthogonalLoop=1;jettySize=auto;html=1;exitX=1;exitY=0.5;exitDx=0;exitDy=0;" edge="1" parent="1" source="zyU6ERqkYpOqnV2dLeTa-1" target="zyU6ERqkYpOqnV2dLeTa-6">
          <mxGeometry relative="1" as="geometry" />
        </mxCell>
        <mxCell id="zyU6ERqkYpOqnV2dLeTa-11" style="edgeStyle=orthogonalEdgeStyle;rounded=0;orthogonalLoop=1;jettySize=auto;html=1;exitX=0;exitY=0.5;exitDx=0;exitDy=0;entryX=1;entryY=0.5;entryDx=0;entryDy=0;" edge="1" parent="1" source="zyU6ERqkYpOqnV2dLeTa-1" target="zyU6ERqkYpOqnV2dLeTa-3">
          <mxGeometry relative="1" as="geometry" />
        </mxCell>
        <mxCell id="zyU6ERqkYpOqnV2dLeTa-12" style="edgeStyle=orthogonalEdgeStyle;rounded=0;orthogonalLoop=1;jettySize=auto;html=1;exitX=0.5;exitY=1;exitDx=0;exitDy=0;entryX=0.5;entryY=1;entryDx=0;entryDy=0;" edge="1" parent="1" source="zyU6ERqkYpOqnV2dLeTa-1" target="zyU6ERqkYpOqnV2dLeTa-2">
          <mxGeometry relative="1" as="geometry">
            <Array as="points">
              <mxPoint x="540" y="370" />
              <mxPoint x="140" y="370" />
            </Array>
          </mxGeometry>
        </mxCell>
        <mxCell id="zyU6ERqkYpOqnV2dLeTa-23" style="edgeStyle=orthogonalEdgeStyle;rounded=0;orthogonalLoop=1;jettySize=auto;html=1;exitX=0.5;exitY=0;exitDx=0;exitDy=0;entryX=0.5;entryY=1;entryDx=0;entryDy=0;" edge="1" parent="1" source="zyU6ERqkYpOqnV2dLeTa-1" target="zyU6ERqkYpOqnV2dLeTa-17">
          <mxGeometry relative="1" as="geometry" />
        </mxCell>
        <mxCell id="zyU6ERqkYpOqnV2dLeTa-1" value="Decision maker" style="rounded=1;whiteSpace=wrap;html=1;" vertex="1" parent="1">
          <mxGeometry x="480" y="240" width="120" height="60" as="geometry" />
        </mxCell>
        <mxCell id="zyU6ERqkYpOqnV2dLeTa-2" value="User" style="rounded=1;whiteSpace=wrap;html=1;" vertex="1" parent="1">
          <mxGeometry x="80" y="240" width="120" height="60" as="geometry" />
        </mxCell>
        <mxCell id="zyU6ERqkYpOqnV2dLeTa-9" style="edgeStyle=orthogonalEdgeStyle;rounded=0;orthogonalLoop=1;jettySize=auto;html=1;exitX=1;exitY=0.5;exitDx=0;exitDy=0;entryX=0;entryY=0.5;entryDx=0;entryDy=0;" edge="1" parent="1" source="zyU6ERqkYpOqnV2dLeTa-3" target="zyU6ERqkYpOqnV2dLeTa-1">
          <mxGeometry relative="1" as="geometry" />
        </mxCell>
        <mxCell id="zyU6ERqkYpOqnV2dLeTa-3" value="Client identifier builder" style="rounded=1;whiteSpace=wrap;html=1;" vertex="1" parent="1">
          <mxGeometry x="280" y="240" width="120" height="60" as="geometry" />
        </mxCell>
        <mxCell id="zyU6ERqkYpOqnV2dLeTa-4" value="" style="edgeStyle=orthogonalEdgeStyle;rounded=0;orthogonalLoop=1;jettySize=auto;html=1;" edge="1" parent="1" source="zyU6ERqkYpOqnV2dLeTa-2" target="zyU6ERqkYpOqnV2dLeTa-3">
          <mxGeometry relative="1" as="geometry" />
        </mxCell>
        <mxCell id="zyU6ERqkYpOqnV2dLeTa-10" style="edgeStyle=orthogonalEdgeStyle;rounded=0;orthogonalLoop=1;jettySize=auto;html=1;exitX=0;exitY=0.5;exitDx=0;exitDy=0;" edge="1" parent="1" source="zyU6ERqkYpOqnV2dLeTa-6" target="zyU6ERqkYpOqnV2dLeTa-1">
          <mxGeometry relative="1" as="geometry" />
        </mxCell>
        <mxCell id="zyU6ERqkYpOqnV2dLeTa-6" value="Servers" style="rounded=1;whiteSpace=wrap;html=1;" vertex="1" parent="1">
          <mxGeometry x="680" y="240" width="120" height="60" as="geometry" />
        </mxCell>
        <mxCell id="zyU6ERqkYpOqnV2dLeTa-13" value="Reject" style="text;html=1;strokeColor=none;fillColor=none;align=center;verticalAlign=middle;whiteSpace=wrap;rounded=0;" vertex="1" parent="1">
          <mxGeometry x="310" y="370" width="60" height="30" as="geometry" />
        </mxCell>
        <mxCell id="zyU6ERqkYpOqnV2dLeTa-14" value="Allow" style="text;html=1;strokeColor=none;fillColor=none;align=center;verticalAlign=middle;whiteSpace=wrap;rounded=0;" vertex="1" parent="1">
          <mxGeometry x="610" y="270" width="60" height="30" as="geometry" />
        </mxCell>
        <mxCell id="zyU6ERqkYpOqnV2dLeTa-18" style="edgeStyle=orthogonalEdgeStyle;rounded=0;orthogonalLoop=1;jettySize=auto;html=1;exitX=1;exitY=0.5;exitDx=0;exitDy=0;entryX=0;entryY=0.5;entryDx=0;entryDy=0;" edge="1" parent="1" source="zyU6ERqkYpOqnV2dLeTa-15" target="zyU6ERqkYpOqnV2dLeTa-16">
          <mxGeometry relative="1" as="geometry" />
        </mxCell>
        <mxCell id="zyU6ERqkYpOqnV2dLeTa-15" value="Throttle rule DB" style="rounded=1;whiteSpace=wrap;html=1;" vertex="1" parent="1">
          <mxGeometry x="80" y="80" width="120" height="60" as="geometry" />
        </mxCell>
        <mxCell id="zyU6ERqkYpOqnV2dLeTa-19" style="edgeStyle=orthogonalEdgeStyle;rounded=0;orthogonalLoop=1;jettySize=auto;html=1;exitX=0;exitY=0.5;exitDx=0;exitDy=0;" edge="1" parent="1" source="zyU6ERqkYpOqnV2dLeTa-16" target="zyU6ERqkYpOqnV2dLeTa-15">
          <mxGeometry relative="1" as="geometry" />
        </mxCell>
        <mxCell id="zyU6ERqkYpOqnV2dLeTa-20" style="edgeStyle=orthogonalEdgeStyle;rounded=0;orthogonalLoop=1;jettySize=auto;html=1;exitX=1;exitY=0.5;exitDx=0;exitDy=0;entryX=0;entryY=0.5;entryDx=0;entryDy=0;" edge="1" parent="1" source="zyU6ERqkYpOqnV2dLeTa-16" target="zyU6ERqkYpOqnV2dLeTa-17">
          <mxGeometry relative="1" as="geometry" />
        </mxCell>
        <mxCell id="zyU6ERqkYpOqnV2dLeTa-16" value="Throttle rule retriever" style="rounded=1;whiteSpace=wrap;html=1;" vertex="1" parent="1">
          <mxGeometry x="280" y="80" width="120" height="60" as="geometry" />
        </mxCell>
        <mxCell id="zyU6ERqkYpOqnV2dLeTa-21" style="edgeStyle=orthogonalEdgeStyle;rounded=0;orthogonalLoop=1;jettySize=auto;html=1;exitX=0;exitY=0.5;exitDx=0;exitDy=0;entryX=1;entryY=0.5;entryDx=0;entryDy=0;" edge="1" parent="1" source="zyU6ERqkYpOqnV2dLeTa-17" target="zyU6ERqkYpOqnV2dLeTa-16">
          <mxGeometry relative="1" as="geometry" />
        </mxCell>
        <mxCell id="zyU6ERqkYpOqnV2dLeTa-22" style="edgeStyle=orthogonalEdgeStyle;rounded=0;orthogonalLoop=1;jettySize=auto;html=1;exitX=0.5;exitY=1;exitDx=0;exitDy=0;entryX=0.5;entryY=0;entryDx=0;entryDy=0;" edge="1" parent="1" source="zyU6ERqkYpOqnV2dLeTa-17" target="zyU6ERqkYpOqnV2dLeTa-1">
          <mxGeometry relative="1" as="geometry" />
        </mxCell>
        <mxCell id="zyU6ERqkYpOqnV2dLeTa-17" value="Throttle rule cache" style="rounded=1;whiteSpace=wrap;html=1;" vertex="1" parent="1">
          <mxGeometry x="480" y="80" width="120" height="60" as="geometry" />
        </mxCell>
      </root>
    </mxGraphModel>
  </diagram>
</mxfile>
